<?xml version="1.0" encoding="utf-8"?>
<!-- Generator: Adobe Illustrator 25.2.3, SVG Export Plug-In . SVG Version: 6.00 Build 0)  -->
<!DOCTYPE svg PUBLIC "-//W3C//DTD SVG 1.1//EN" "http://www.w3.org/Graphics/SVG/1.1/DTD/svg11.dtd" [
	<!ENTITY ns_extend "http://ns.adobe.com/Extensibility/1.0/">
	<!ENTITY ns_ai "http://ns.adobe.com/AdobeIllustrator/10.0/">
	<!ENTITY ns_graphs "http://ns.adobe.com/Graphs/1.0/">
	<!ENTITY ns_vars "http://ns.adobe.com/Variables/1.0/">
	<!ENTITY ns_imrep "http://ns.adobe.com/ImageReplacement/1.0/">
	<!ENTITY ns_sfw "http://ns.adobe.com/SaveForWeb/1.0/">
	<!ENTITY ns_custom "http://ns.adobe.com/GenericCustomNamespace/1.0/">
	<!ENTITY ns_adobe_xpath "http://ns.adobe.com/XPath/1.0/">
]>
<svg version="1.1" id="Calque_1" xmlns:x="&ns_extend;" xmlns:i="&ns_ai;" xmlns:graph="&ns_graphs;"
	 xmlns="http://www.w3.org/2000/svg" xmlns:xlink="http://www.w3.org/1999/xlink" x="0px" y="0px" width="103px" height="155.8px"
	 viewBox="0 0 103 155.8" style="enable-background:new 0 0 103 155.8;" xml:space="preserve">
<metadata>
	<sfw  xmlns="&ns_sfw;">
		<slices></slices>
		<sliceSourceBounds  bottomLeftOrigin="true" height="152.5" width="100" x="1.4" y="-28.4"></sliceSourceBounds>
	</sfw>
</metadata>
<path d="M51.4,28.6c-13,0-23.6,10.6-23.6,23.6c0,13.1,10.6,23.7,23.6,23.7c13,0,23.7-10.6,23.7-23.7C75,39.2,64.4,28.6,51.4,28.6z
	 M51.4,6.3c-24.6,0-44.6,20-44.6,44.6c0,7.2,1.7,14.1,5,20.4c0,0.1,0.1,0.1,0.1,0.2l0.6,1.1L51.4,145L91,71.3c3.3-6.5,5-13.3,5-20.5
	C96,26.3,76,6.3,51.4,6.3z M51.4,81.3c-16,0-29.1-13.1-29.1-29.1c0-16,13-29,29.1-29c16,0,29.1,13,29.1,29
	C80.5,68.2,67.4,81.3,51.4,81.3z M51.4,0.9c-27.6,0-50,22.4-50,50c0,8.1,1.9,15.8,5.5,22.6C6.9,73.7,7,73.9,7.1,74L49,152
	c0.5,0.9,1.4,1.4,2.4,1.4c1,0,1.9-0.6,2.4-1.4L95,75.4l0.8-1.6c3.7-7.2,5.6-14.9,5.6-22.9C101.4,23.3,79,0.9,51.4,0.9z M91,71.3
	l-39.6,73.6L12.5,72.7l-0.6-1.1c0-0.1-0.1-0.2-0.1-0.2c-3.3-6.4-5-13.2-5-20.4c0-24.6,20-44.6,44.6-44.6C76,6.3,96,26.3,96,50.9
	C96,58,94.3,64.9,91,71.3z M51.4,23.1c-16,0-29.1,13-29.1,29c0,16,13,29.1,29.1,29.1c16,0,29.1-13.1,29.1-29.1
	C80.5,36.2,67.4,23.1,51.4,23.1z M51.4,75.9c-13,0-23.6-10.6-23.6-23.7c0-13,10.6-23.6,23.6-23.6c13,0,23.7,10.6,23.7,23.6
	C75,65.2,64.4,75.9,51.4,75.9z"/>
</svg>
