<?xml version="1.0" encoding="utf-8"?>
<!-- Generator: Adobe Illustrator 25.3.1, SVG Export Plug-In . SVG Version: 6.00 Build 0)  -->
<!DOCTYPE svg PUBLIC "-//W3C//DTD SVG 1.1//EN" "http://www.w3.org/Graphics/SVG/1.1/DTD/svg11.dtd" [
	<!ENTITY ns_extend "http://ns.adobe.com/Extensibility/1.0/">
	<!ENTITY ns_ai "http://ns.adobe.com/AdobeIllustrator/10.0/">
	<!ENTITY ns_graphs "http://ns.adobe.com/Graphs/1.0/">
	<!ENTITY ns_vars "http://ns.adobe.com/Variables/1.0/">
	<!ENTITY ns_imrep "http://ns.adobe.com/ImageReplacement/1.0/">
	<!ENTITY ns_sfw "http://ns.adobe.com/SaveForWeb/1.0/">
	<!ENTITY ns_custom "http://ns.adobe.com/GenericCustomNamespace/1.0/">
	<!ENTITY ns_adobe_xpath "http://ns.adobe.com/XPath/1.0/">
]>
<svg version="1.1" id="Calque_1" xmlns:x="&ns_extend;" xmlns:i="&ns_ai;" xmlns:graph="&ns_graphs;"
	 xmlns="http://www.w3.org/2000/svg" xmlns:xlink="http://www.w3.org/1999/xlink" x="0px" y="0px" width="48px" height="56.8px"
	 viewBox="0 0 48 56.8" style="enable-background:new 0 0 48 56.8;" xml:space="preserve">
<metadata>
	<sfw  xmlns="&ns_sfw;">
		<slices></slices>
		<sliceSourceBounds  bottomLeftOrigin="true" height="54.5" width="45" x="1" y="4.5"></sliceSourceBounds>
	</sfw>
</metadata>
<g>
	<g>
		<path d="M23.5,9.3c-7.8,0-14.2,6.4-14.2,14.2c0,3.7,1.7,6.3,3.2,8.8c0.6,0.9,1.1,1.8,1.6,2.7c0.4,0.7,0.8,3.5,1,5.2l0.1,1h15.3
			h1.1l0.1-1c0.2-1.7,0.7-4.5,1.1-5.2c0.5-0.9,1.1-1.8,1.6-2.7c1.6-2.5,3.2-5.1,3.2-8.8C37.7,15.7,31.3,9.3,23.5,9.3z M32.5,31
			c-0.6,0.9-1.2,1.8-1.7,2.8c-0.6,1-1,3.6-1.2,5H17.4c-0.2-1.5-0.6-4-1.2-5c-0.6-1-1.1-1.9-1.7-2.8c-1.5-2.4-2.9-4.5-2.9-7.5
			c0-6.5,5.3-11.8,11.8-11.8S35.3,17,35.3,23.5C35.3,26.5,34,28.6,32.5,31z"/>
		<rect x="16.4" y="43.4" width="14.2" height="2.4"/>
		<path d="M16.4,51h2.4c0.1,2.5,2.2,4.5,4.7,4.5s4.6-2,4.7-4.5h2.4v-2.4H16.4V51z M23.5,53.1c-1.2,0-2.2-0.9-2.3-2.2h4.7
			C25.7,52.2,24.7,53.1,23.5,53.1z"/>
		<rect x="40.1" y="22.3" width="5.9" height="2.4"/>
		<rect x="1" y="22.3" width="5.9" height="2.4"/>
		<rect x="37.5" y="12.5" transform="matrix(0.8661 -0.4999 0.4999 0.8661 -1.4512 22.045)" width="5.9" height="2.4"/>
		<rect x="3.6" y="32.1" transform="matrix(0.8661 -0.4999 0.4999 0.8661 -15.7501 7.7451)" width="5.9" height="2.4"/>
		<rect x="30.3" y="5.4" transform="matrix(0.4999 -0.8661 0.8661 0.4999 10.9426 32.1053)" width="5.9" height="2.4"/>
		<rect x="12.5" y="3.6" transform="matrix(0.866 -0.5 0.5 0.866 -1.4495 7.7472)" width="2.4" height="5.9"/>
		<rect x="39.2" y="30.3" transform="matrix(0.5001 -0.866 0.866 0.5001 -8.6012 51.6358)" width="2.4" height="5.9"/>
		<rect x="5.4" y="10.8" transform="matrix(0.5 -0.866 0.866 0.5 -8.6007 12.5622)" width="2.4" height="5.9"/>
		<rect x="22.3" y="1" width="2.4" height="5.9"/>
		<path d="M23.5,14v2.4c3.9,0,7.1,3.2,7.1,7.1H33C33,18.3,28.7,14,23.5,14z"/>
	</g>
</g>
</svg>
