<?xml version="1.0" encoding="utf-8"?>
<!-- Generator: Adobe Illustrator 25.3.0, SVG Export Plug-In . SVG Version: 6.00 Build 0)  -->
<!DOCTYPE svg PUBLIC "-//W3C//DTD SVG 1.1//EN" "http://www.w3.org/Graphics/SVG/1.1/DTD/svg11.dtd" [
	<!ENTITY ns_extend "http://ns.adobe.com/Extensibility/1.0/">
	<!ENTITY ns_ai "http://ns.adobe.com/AdobeIllustrator/10.0/">
	<!ENTITY ns_graphs "http://ns.adobe.com/Graphs/1.0/">
	<!ENTITY ns_vars "http://ns.adobe.com/Variables/1.0/">
	<!ENTITY ns_imrep "http://ns.adobe.com/ImageReplacement/1.0/">
	<!ENTITY ns_sfw "http://ns.adobe.com/SaveForWeb/1.0/">
	<!ENTITY ns_custom "http://ns.adobe.com/GenericCustomNamespace/1.0/">
	<!ENTITY ns_adobe_xpath "http://ns.adobe.com/XPath/1.0/">
]>
<svg version="1.1" id="Calque_1" xmlns:x="&ns_extend;" xmlns:i="&ns_ai;" xmlns:graph="&ns_graphs;"
	 xmlns="http://www.w3.org/2000/svg" xmlns:xlink="http://www.w3.org/1999/xlink" x="0px" y="0px" width="480px" height="105px"
	 viewBox="0 0 480 105" style="enable-background:new 0 0 480 105;" xml:space="preserve">
<metadata>
	<sfw  xmlns="&ns_sfw;">
		<slices></slices>
		<sliceSourceBounds  bottomLeftOrigin="true" height="100" width="477.3" x="2.3" y="-102.2"></sliceSourceBounds>
	</sfw>
</metadata>
<g>
	<path d="M43.1,82.6c-22.8,0-40.8-17.8-40.8-39.8c0-21.9,18-39.6,40.8-39.6c10.8,0,20.9,4.1,27.8,10.4L64.7,20
		c-6.1-5.4-13.4-8.4-21.6-8.4c-17.4,0-31.5,14.6-31.5,31.1c0,16.9,14.1,31.5,31.5,31.5c14.8,0,26.9-12.1,28.3-26.7L46,47.6l3.7-8.5
		h31.2V43C80.9,64.8,64.2,82.6,43.1,82.6z"/>
	<path d="M150.8,51.5c0,17-13.6,31.6-32.2,31.6S86.4,68.5,86.4,51.5s13.6-31.6,32.2-31.6S150.8,34.5,150.8,51.5z M95.5,51.5
		c0,12.9,9.7,24.1,23.1,24.1s23.1-11.3,23.1-24.1c0-12.9-9.7-24.1-23.1-24.1S95.5,38.6,95.5,51.5z"/>
	<path d="M220.3,51.5c0,17-13.6,31.6-32.2,31.6s-32.2-14.6-32.2-31.6s13.6-31.6,32.2-31.6S220.3,34.5,220.3,51.5z M165,51.5
		c0,12.9,9.7,24.1,23.1,24.1s23.1-11.3,23.1-24.1c0-12.9-9.7-24.1-23.1-24.1S165,38.6,165,51.5z"/>
	<path d="M280.4,70c-5.5,7.6-14.4,12.7-24.7,12.7c-17.4,0-30.3-14.4-30.3-31.1c0-16.7,12.9-31.3,30.3-31.3
		c10.1,0,18.9,4.9,24.4,12.4V2.2h8.5v78h-8.2V70z M257.3,28c-13.3,0-22.8,11-22.8,23.5c0,12.4,9.5,23.5,22.8,23.5
		c13.2,0,23-11.1,23-23.5S270.5,28,257.3,28z"/>
	<path d="M331.3,82.7c-10.3,0-19.2-5.1-24.7-12.7v10.2h-8.3v-78h8.6v30.5c5.5-7.5,14.3-12.4,24.4-12.4c17.4,0,30.3,14.6,30.3,31.3
		C361.6,68.3,348.7,82.7,331.3,82.7z M329.7,75c13.3,0,22.8-11.1,22.8-23.5C352.5,39,343,28,329.7,28c-13.2,0-23,11.1-23,23.5
		S316.5,75,329.7,75z"/>
	<path d="M389,102.2h-8.6l7.9-20.9l-26.7-58.5h9.6l21.1,48l18.2-48h8.9L389,102.2z"/>
	<path d="M451.1,83.1c-19.2,0-32.4-14.2-32.4-31.6c0-17.1,12.6-31.6,30.6-31.6c16.7,0,30.3,13.5,30.3,30.5v1.8h-51.8
		c0.4,13.7,10,23.4,23.3,23.4c9.2,0,16.5-3.9,21.9-9.3l5.3,5.7C472.5,78.1,463.4,83.1,451.1,83.1z M428.5,45.2h41.6
		c-2.2-10.3-10.6-17.8-20.8-17.8C438.8,27.4,430.7,34.6,428.5,45.2z"/>
</g>
</svg>
